<svg width="50" height="51" viewBox="0 0 50 51" fill="none" xmlns="http://www.w3.org/2000/svg">
<path d="M28.883 8.06738C27.4466 4.64421 22.5534 4.64421 21.117 8.06738L17.4335 16.8401L7.87412 17.6001C4.14654 17.8948 2.63451 22.5075 5.47587 24.9201L12.7588 31.1033L10.5328 40.3497C9.66546 43.956 13.624 46.8065 16.8161 44.8739L25 39.9202L33.1839 44.876C36.3759 46.8087 40.3345 43.9581 39.4672 40.3497L37.2412 31.1075L44.5241 24.9222C47.3655 22.5096 45.8535 17.899 42.1259 17.6022L32.5665 16.8443L28.883 8.06738Z" fill="#FAC800"/>
<path d="M25.364 33.288C24.56 33.288 23.846 33.132 23.222 32.82C22.598 32.508 22.076 32.07 21.656 31.506C21.248 30.93 20.966 30.258 20.81 29.49L22.988 29.04L23.186 29.076C23.27 29.388 23.402 29.694 23.582 29.994C23.774 30.282 24.02 30.522 24.32 30.714C24.632 30.894 24.998 30.984 25.418 30.984C25.838 30.984 26.21 30.894 26.534 30.714C26.87 30.534 27.134 30.282 27.326 29.958C27.518 29.634 27.614 29.256 27.614 28.824C27.614 28.452 27.518 28.11 27.326 27.798C27.146 27.486 26.888 27.24 26.552 27.06C26.228 26.868 25.838 26.772 25.382 26.772C24.902 26.772 24.506 26.886 24.194 27.114C23.882 27.33 23.588 27.618 23.312 27.978L21.062 27.528L21.962 20.4H29.288V22.704H22.916L24.194 21.3L23.456 26.808L22.25 26.952C22.49 26.52 22.772 26.124 23.096 25.764C23.42 25.392 23.804 25.092 24.248 24.864C24.704 24.636 25.226 24.522 25.814 24.522C26.582 24.522 27.284 24.714 27.92 25.098C28.568 25.47 29.084 25.98 29.468 26.628C29.852 27.276 30.044 28.008 30.044 28.824C30.044 29.664 29.846 30.426 29.45 31.11C29.066 31.782 28.52 32.316 27.812 32.712C27.116 33.096 26.3 33.288 25.364 33.288Z" fill="white"/>
</svg>
