<svg width="50" height="51" viewBox="0 0 50 51" fill="none" xmlns="http://www.w3.org/2000/svg">
<path d="M28.883 8.06738C27.4466 4.64421 22.5534 4.64421 21.117 8.06738L17.4335 16.8401L7.87412 17.6001C4.14654 17.8948 2.63451 22.5075 5.47587 24.9201L12.7588 31.1033L10.5328 40.3497C9.66546 43.956 13.624 46.8065 16.8161 44.8739L25 39.9202L33.1839 44.876C36.3759 46.8087 40.3345 43.9581 39.4672 40.3497L37.2412 31.1075L44.5241 24.9222C47.3655 22.5096 45.8535 17.899 42.1259 17.6022L32.5665 16.8443L28.883 8.06738Z" fill="#FAC800"/>
<path d="M20.99 33V30.876L25.436 26.88C25.784 26.568 26.06 26.268 26.264 25.98C26.48 25.68 26.636 25.392 26.732 25.116C26.84 24.828 26.894 24.546 26.894 24.27C26.894 23.91 26.816 23.592 26.66 23.316C26.504 23.04 26.288 22.824 26.012 22.668C25.736 22.5 25.412 22.416 25.04 22.416C24.62 22.416 24.26 22.524 23.96 22.74C23.66 22.944 23.432 23.244 23.276 23.64C23.12 24.024 23.042 24.486 23.042 25.026L22.844 25.062L20.72 24.63C20.72 23.754 20.912 22.98 21.296 22.308C21.692 21.624 22.22 21.09 22.88 20.706C23.552 20.31 24.302 20.112 25.13 20.112C25.946 20.112 26.666 20.298 27.29 20.67C27.926 21.042 28.424 21.546 28.784 22.182C29.144 22.818 29.324 23.538 29.324 24.342C29.324 24.798 29.246 25.254 29.09 25.71C28.934 26.166 28.682 26.634 28.334 27.114C27.986 27.594 27.518 28.098 26.93 28.626L22.916 32.298L22.412 30.696H29.72V33H20.99Z" fill="white"/>
</svg>
