<svg width="50" height="51" viewBox="0 0 50 51" fill="none" xmlns="http://www.w3.org/2000/svg">
<path d="M28.883 8.06738C27.4466 4.64421 22.5534 4.64421 21.117 8.06738L17.4335 16.8401L7.87412 17.6001C4.14654 17.8948 2.63451 22.5075 5.47587 24.9201L12.7588 31.1033L10.5328 40.3497C9.66546 43.956 13.624 46.8065 16.8161 44.8739L25 39.9202L33.1839 44.876C36.3759 46.8087 40.3345 43.9581 39.4672 40.3497L37.2412 31.1075L44.5241 24.9222C47.3655 22.5096 45.8535 17.899 42.1259 17.6022L32.5665 16.8443L28.883 8.06738Z" fill="#FAC800"/>
<path d="M24.024 33V21.102L25.23 22.434L21.594 25.296H21.45V22.416L24.078 20.4H26.454V33H24.024Z" fill="white"/>
</svg>
