<svg width="50" height="51" viewBox="0 0 50 51" fill="none" xmlns="http://www.w3.org/2000/svg">
<path d="M28.883 8.06738C27.4466 4.64421 22.5534 4.64421 21.117 8.06738L17.4335 16.8401L7.87412 17.6001C4.14654 17.8948 2.63451 22.5075 5.47587 24.9201L12.7588 31.1033L10.5328 40.3497C9.66546 43.956 13.624 46.8065 16.8161 44.8739L25 39.9202L33.1839 44.876C36.3759 46.8087 40.3345 43.9581 39.4672 40.3497L37.2412 31.1075L44.5241 24.9222C47.3655 22.5096 45.8535 17.899 42.1259 17.6022L32.5665 16.8443L28.883 8.06738Z" fill="#FAC800"/>
<path d="M24.544 33.288C23.632 33.288 22.834 33.108 22.15 32.748C21.466 32.388 20.92 31.878 20.512 31.218C20.116 30.558 19.882 29.772 19.81 28.86L22.042 28.41L22.24 28.446C22.24 28.914 22.324 29.34 22.492 29.724C22.672 30.108 22.93 30.414 23.266 30.642C23.614 30.87 24.04 30.984 24.544 30.984C24.928 30.984 25.264 30.912 25.552 30.768C25.852 30.624 26.086 30.42 26.254 30.156C26.434 29.892 26.524 29.58 26.524 29.22C26.524 28.68 26.332 28.266 25.948 27.978C25.564 27.678 25.066 27.528 24.454 27.528H23.5V25.44H24.49C24.982 25.44 25.384 25.308 25.696 25.044C26.02 24.78 26.182 24.414 26.182 23.946C26.182 23.634 26.104 23.358 25.948 23.118C25.804 22.878 25.6 22.692 25.336 22.56C25.084 22.428 24.79 22.362 24.454 22.362C24.082 22.362 23.746 22.452 23.446 22.632C23.158 22.8 22.918 23.046 22.726 23.37C22.546 23.682 22.426 24.048 22.366 24.468L22.168 24.504L20.044 24.072C20.104 23.364 20.32 22.71 20.692 22.11C21.064 21.51 21.568 21.03 22.204 20.67C22.852 20.298 23.62 20.112 24.508 20.112C25.276 20.112 25.966 20.262 26.578 20.562C27.202 20.862 27.694 21.276 28.054 21.804C28.426 22.332 28.612 22.944 28.612 23.64C28.612 24.408 28.372 25.062 27.892 25.602C27.424 26.142 26.806 26.46 26.038 26.556V26.178C26.638 26.178 27.154 26.328 27.586 26.628C28.018 26.916 28.354 27.3 28.594 27.78C28.834 28.26 28.954 28.788 28.954 29.364C28.954 30.108 28.768 30.78 28.396 31.38C28.024 31.968 27.508 32.436 26.848 32.784C26.188 33.12 25.42 33.288 24.544 33.288Z" fill="white"/>
</svg>
