<svg width="25" height="24" viewBox="0 0 25 24" fill="none" xmlns="http://www.w3.org/2000/svg">
<path d="M17.1 5.82C16.4166 5.03953 16.0399 4.0374 16.04 3H12.95V15.4C12.9266 16.0712 12.6435 16.7071 12.1603 17.1735C11.6771 17.6399 11.0316 17.9004 10.36 17.9C8.93997 17.9 7.75997 16.74 7.75997 15.3C7.75997 13.58 9.41997 12.29 11.13 12.82V9.66C7.67997 9.2 4.65997 11.88 4.65997 15.3C4.65997 18.63 7.41997 21 10.35 21C13.49 21 16.04 18.45 16.04 15.3V9.01C17.293 9.90985 18.7973 10.3926 20.34 10.39V7.3C20.34 7.3 18.46 7.39 17.1 5.82Z" fill="white"/>
</svg>
