<svg width="25" height="24" viewBox="0 0 25 24" fill="none" xmlns="http://www.w3.org/2000/svg">
<path d="M12.5 4C13.355 4 14.232 4.022 15.082 4.058L16.086 4.106L17.047 4.163L17.947 4.224L18.769 4.288C19.6612 4.35589 20.5008 4.73643 21.14 5.3626C21.7791 5.98877 22.1768 6.8204 22.263 7.711L22.303 8.136L22.378 9.046C22.448 9.989 22.5 11.017 22.5 12C22.5 12.983 22.448 14.011 22.378 14.954L22.303 15.864L22.263 16.289C22.1768 17.1798 21.7789 18.0115 21.1396 18.6377C20.5002 19.2639 19.6604 19.6443 18.768 19.712L17.948 19.775L17.048 19.837L16.086 19.894L15.082 19.942C14.2218 19.9793 13.361 19.9986 12.5 20C11.639 19.9986 10.7782 19.9793 9.918 19.942L8.914 19.894L7.953 19.837L7.053 19.775L6.231 19.712C5.33881 19.6441 4.4992 19.2636 3.86004 18.6374C3.22089 18.0112 2.82319 17.1796 2.737 16.289L2.697 15.864L2.622 14.954C2.54583 13.9711 2.50514 12.9858 2.5 12C2.5 11.017 2.552 9.989 2.622 9.046L2.697 8.136L2.737 7.711C2.82316 6.82055 3.22071 5.98905 3.85966 5.36291C4.49861 4.73676 5.33799 4.35612 6.23 4.288L7.051 4.224L7.951 4.163L8.913 4.106L9.917 4.058C10.7775 4.02073 11.6387 4.00139 12.5 4ZM12.5 6C11.675 6 10.826 6.022 10 6.056L9.022 6.103L8.083 6.158L7.201 6.218L6.393 6.281C5.96819 6.31074 5.56769 6.49013 5.26266 6.78728C4.95763 7.08444 4.76784 7.48012 4.727 7.904C4.61 9.113 4.5 10.618 4.5 12C4.5 13.382 4.61 14.887 4.727 16.096C4.812 16.968 5.504 17.646 6.393 17.719L7.201 17.781L8.083 17.841L9.022 17.897L10 17.944C10.826 17.978 11.675 18 12.5 18C13.325 18 14.174 17.978 15 17.944L15.978 17.897L16.917 17.842L17.799 17.782L18.607 17.719C19.0318 17.6893 19.4323 17.5099 19.7373 17.2127C20.0424 16.9156 20.2322 16.5199 20.273 16.096C20.39 14.887 20.5 13.382 20.5 12C20.5 10.618 20.39 9.113 20.273 7.904C20.2322 7.48012 20.0424 7.08444 19.7373 6.78728C19.4323 6.49013 19.0318 6.31074 18.607 6.281L17.799 6.219L16.917 6.159L15.978 6.103L15 6.056C14.1671 6.02025 13.3336 6.00158 12.5 6ZM10.5 9.575C10.4999 9.47726 10.5237 9.38099 10.5694 9.29455C10.615 9.20812 10.681 9.13413 10.7618 9.07903C10.8425 9.02394 10.9354 8.98939 11.0326 8.97841C11.1297 8.96742 11.228 8.98033 11.319 9.016L11.4 9.056L15.6 11.48C15.6836 11.5283 15.7544 11.596 15.8063 11.6774C15.8581 11.7589 15.8896 11.8517 15.8979 11.9478C15.9062 12.044 15.8912 12.1408 15.8542 12.23C15.8171 12.3192 15.7591 12.3981 15.685 12.46L15.6 12.52L11.4 14.945C11.3154 14.994 11.22 15.0216 11.1223 15.0253C11.0246 15.0291 10.9274 15.0089 10.8393 14.9665C10.7511 14.9241 10.6747 14.8608 10.6166 14.7821C10.5585 14.7034 10.5205 14.6117 10.506 14.515L10.5 14.425V9.575Z" fill="white"/>
</svg>
